<svg width="123" height="41" viewBox="0 0 123 41" fill="none" xmlns="http://www.w3.org/2000/svg">
<g clip-path="url(#clip0_449_910)">
<path d="M15.9021 26.1709C14.1592 27.9243 11.2074 27.9173 10.383 25.5805C10.2216 25.123 10.0926 24.6526 9.99767 24.1726C9.61015 22.2127 9.80904 20.1812 10.5692 18.3351C11.3293 16.489 12.6166 14.911 14.2682 13.8009C15.9199 12.6907 17.8617 12.0981 19.848 12.0981C21.8344 12.0981 23.7762 12.6907 25.4278 13.8009C27.0794 14.911 28.3667 16.489 29.1268 18.3351C29.887 20.1812 30.0858 22.2127 29.6984 24.1726C29.6034 24.6526 29.4744 25.123 29.313 25.5805C28.4886 27.9173 25.5368 27.9243 23.7939 26.1709L21.1034 23.4644C20.8464 23.2058 20.8729 22.7794 20.9439 22.4208C20.9869 22.2027 20.9648 21.9767 20.8802 21.7714C20.7957 21.566 20.6525 21.3904 20.4688 21.2669C20.285 21.1435 20.069 21.0775 19.848 21.0775C19.6271 21.0775 19.411 21.1435 19.2273 21.2669C19.0435 21.3904 18.9003 21.566 18.8158 21.7714C18.7312 21.9767 18.7091 22.2027 18.7522 22.4208C18.8231 22.7794 18.8496 23.2058 18.5926 23.4644L15.9021 26.1709Z" fill="url(#paint0_linear_449_910)"/>
<path d="M38.0619 23.7451H40.7615V25.3455H36.001V16.8345H38.0619V23.7451Z" fill="#3A3B7B"/>
<path d="M44.4446 25.4426C43.7858 25.4426 43.1912 25.3011 42.6609 25.0182C42.1387 24.7354 41.7249 24.3312 41.4195 23.8058C41.1223 23.2805 40.9736 22.6662 40.9736 21.963C40.9736 21.2679 41.1263 20.6576 41.4316 20.1322C41.7369 19.5988 42.1547 19.1906 42.685 18.9077C43.2153 18.6248 43.8099 18.4834 44.4687 18.4834C45.1275 18.4834 45.7221 18.6248 46.2524 18.9077C46.7827 19.1906 47.2005 19.5988 47.5058 20.1322C47.8111 20.6576 47.9638 21.2679 47.9638 21.963C47.9638 22.6581 47.8071 23.2724 47.4938 23.8058C47.1885 24.3312 46.7666 24.7354 46.2283 25.0182C45.698 25.3011 45.1034 25.4426 44.4446 25.4426ZM44.4446 23.6482C44.8383 23.6482 45.1717 23.5028 45.4449 23.2118C45.7261 22.9208 45.8668 22.5045 45.8668 21.963C45.8668 21.4214 45.7301 21.0052 45.457 20.7142C45.1918 20.4232 44.8624 20.2777 44.4687 20.2777C44.067 20.2777 43.7335 20.4232 43.4684 20.7142C43.2032 20.9971 43.0707 21.4133 43.0707 21.963C43.0707 22.5045 43.1992 22.9208 43.4564 23.2118C43.7215 23.5028 44.0509 23.6482 44.4446 23.6482Z" fill="#3A3B7B"/>
<path d="M51.2509 18.4834C51.7249 18.4834 52.1388 18.5804 52.4923 18.7744C52.8538 18.9683 53.131 19.223 53.3239 19.5382V18.5804H55.3847V25.3334C55.3847 25.9558 55.2602 26.5176 55.0111 27.0187C54.7701 27.5279 54.3965 27.932 53.8903 28.2311C53.3922 28.5302 52.7695 28.6797 52.0223 28.6797C51.026 28.6797 50.2185 28.4413 49.5998 27.9644C48.9812 27.4955 48.6276 26.857 48.5392 26.0488H50.576C50.6403 26.3074 50.793 26.5095 51.034 26.655C51.275 26.8085 51.5723 26.8853 51.9258 26.8853C52.3517 26.8853 52.6891 26.76 52.9382 26.5095C53.1953 26.267 53.3239 25.875 53.3239 25.3334V24.3757C53.123 24.6909 52.8458 24.9496 52.4923 25.1516C52.1388 25.3456 51.7249 25.4426 51.2509 25.4426C50.6965 25.4426 50.1944 25.3011 49.7444 25.0182C49.2945 24.7273 48.9369 24.3191 48.6718 23.7937C48.4147 23.2603 48.2861 22.646 48.2861 21.9509C48.2861 21.2557 48.4147 20.6455 48.6718 20.1201C48.9369 19.5948 49.2945 19.1906 49.7444 18.9077C50.1944 18.6248 50.6965 18.4834 51.2509 18.4834ZM53.3239 21.963C53.3239 21.4457 53.1792 21.0375 52.89 20.7385C52.6088 20.4394 52.2633 20.2899 51.8535 20.2899C51.4437 20.2899 51.0942 20.4394 50.805 20.7385C50.5238 21.0295 50.3832 21.4336 50.3832 21.9509C50.3832 22.4681 50.5238 22.8804 50.805 23.1875C51.0942 23.4866 51.4437 23.6361 51.8535 23.6361C52.2633 23.6361 52.6088 23.4866 52.89 23.1875C53.1792 22.8884 53.3239 22.4803 53.3239 21.963Z" fill="#3A3B7B"/>
<path d="M59.5755 25.4426C58.9166 25.4426 58.3221 25.3011 57.7918 25.0182C57.2695 24.7354 56.8557 24.3312 56.5504 23.8058C56.2532 23.2805 56.1045 22.6662 56.1045 21.963C56.1045 21.2679 56.2571 20.6576 56.5625 20.1322C56.8678 19.5988 57.2856 19.1906 57.8158 18.9077C58.3462 18.6248 58.9407 18.4834 59.5996 18.4834C60.2584 18.4834 60.853 18.6248 61.3832 18.9077C61.9135 19.1906 62.3313 19.5988 62.6366 20.1322C62.942 20.6576 63.0946 21.2679 63.0946 21.963C63.0946 22.6581 62.938 23.2724 62.6246 23.8058C62.3193 24.3312 61.8975 24.7354 61.3591 25.0182C60.8289 25.3011 60.2343 25.4426 59.5755 25.4426ZM59.5755 23.6482C59.9691 23.6482 60.3026 23.5028 60.5758 23.2118C60.857 22.9208 60.9976 22.5045 60.9976 21.963C60.9976 21.4214 60.861 21.0052 60.5878 20.7142C60.3227 20.4232 59.9932 20.2777 59.5996 20.2777C59.1978 20.2777 58.8644 20.4232 58.5992 20.7142C58.3341 20.9971 58.2015 21.4133 58.2015 21.963C58.2015 22.5045 58.3301 22.9208 58.5872 23.2118C58.8524 23.5028 59.1818 23.6482 59.5755 23.6482Z" fill="#3A3B7B"/>
<path d="M64.8621 17.8772C64.5005 17.8772 64.2033 17.7721 63.9703 17.562C63.7453 17.3438 63.6328 17.077 63.6328 16.7618C63.6328 16.4385 63.7453 16.1718 63.9703 15.9616C64.2033 15.7434 64.5005 15.6343 64.8621 15.6343C65.2156 15.6343 65.5049 15.7434 65.7298 15.9616C65.9628 16.1718 66.0793 16.4385 66.0793 16.7618C66.0793 17.077 65.9628 17.3438 65.7298 17.562C65.5049 17.7721 65.2156 17.8772 64.8621 17.8772ZM65.8865 18.5804V25.3456H63.8257V18.5804H65.8865Z" fill="#3A3B7B"/>
<path d="M69.0793 19.5382C69.2801 19.223 69.5573 18.9683 69.911 18.7744C70.2647 18.5804 70.6785 18.4834 71.1524 18.4834C71.7069 18.4834 72.2089 18.6248 72.6589 18.9077C73.1089 19.1906 73.4626 19.5948 73.7194 20.1201C73.9844 20.6455 74.1174 21.2557 74.1174 21.9509C74.1174 22.646 73.9844 23.2603 73.7194 23.7937C73.4626 24.3191 73.1089 24.7273 72.6589 25.0182C72.2089 25.3011 71.7069 25.4426 71.1524 25.4426C70.6861 25.4426 70.2729 25.3456 69.911 25.1516C69.5573 24.9576 69.2801 24.7071 69.0793 24.3999V28.5706H67.0186V18.5804H69.0793V19.5382ZM72.0204 21.9509C72.0204 21.4336 71.8756 21.0295 71.5861 20.7385C71.3048 20.4394 70.9558 20.2899 70.5379 20.2899C70.1281 20.2899 69.7785 20.4394 69.489 20.7385C69.2083 21.0375 69.0676 21.4457 69.0676 21.963C69.0676 22.4803 69.2083 22.8884 69.489 23.1875C69.7785 23.4866 70.1281 23.6361 70.5379 23.6361C70.9476 23.6361 71.2972 23.4866 71.5861 23.1875C71.8756 22.8804 72.0204 22.4681 72.0204 21.9509Z" fill="#3A3B7B"/>
<path d="M77.5731 25.4426C76.9865 25.4426 76.4641 25.3415 76.0059 25.1395C75.5484 24.9374 75.1865 24.6626 74.9215 24.315C74.6565 23.9594 74.5077 23.5634 74.4756 23.1269H76.5126C76.5365 23.3613 76.6451 23.5512 76.8377 23.6967C77.0309 23.8422 77.2678 23.9149 77.5491 23.9149C77.806 23.9149 78.0026 23.8664 78.1392 23.7694C78.284 23.6644 78.3563 23.531 78.3563 23.3694C78.3563 23.1754 78.256 23.0339 78.0552 22.945C77.8544 22.848 77.5287 22.743 77.0787 22.6298C76.5966 22.5166 76.195 22.3994 75.8735 22.2782C75.5524 22.1489 75.2752 21.9509 75.0423 21.6841C74.8089 21.4093 74.6927 21.0415 74.6927 20.5809C74.6927 20.1929 74.7972 19.8413 75.0061 19.5261C75.2227 19.2028 75.5361 18.9481 75.9458 18.7622C76.3637 18.5763 76.8581 18.4834 77.4283 18.4834C78.2717 18.4834 78.9348 18.6935 79.4169 19.1138C79.9071 19.5342 80.1885 20.0918 80.2608 20.787H78.3563C78.3242 20.5526 78.2198 20.3667 78.0429 20.2292C77.8742 20.0918 77.6495 20.0231 77.3682 20.0231C77.1272 20.0231 76.9421 20.0716 76.8137 20.1686C76.6853 20.2575 76.6211 20.3828 76.6211 20.5445C76.6211 20.7385 76.7215 20.884 76.9223 20.981C77.1312 21.078 77.4523 21.1749 77.8865 21.2719C78.3844 21.4012 78.79 21.5306 79.1034 21.6599C79.4169 21.7811 79.69 21.9832 79.9229 22.2661C80.1639 22.5409 80.2888 22.9127 80.297 23.3815C80.297 23.7775 80.1844 24.1332 79.9591 24.4484C79.7425 24.7556 79.425 24.9981 79.0071 25.1758C78.5974 25.3537 78.1194 25.4426 77.5731 25.4426Z" fill="#3A3B7B"/>
<path d="M87.8367 18.5806V25.3458H85.7758V24.4243C85.5669 24.7234 85.2815 24.9659 84.9202 25.1518C84.5665 25.3296 84.1731 25.4185 83.7389 25.4185C83.2247 25.4185 82.7706 25.3054 82.3772 25.079C81.9832 24.8446 81.678 24.5092 81.4614 24.0728C81.2443 23.6363 81.1357 23.123 81.1357 22.533V18.5806H83.1844V22.2541C83.1844 22.7068 83.3011 23.0583 83.534 23.3089C83.7669 23.5595 84.0803 23.6848 84.4743 23.6848C84.8758 23.6848 85.1933 23.5595 85.4262 23.3089C85.6591 23.0583 85.7758 22.7068 85.7758 22.2541V18.5806H87.8367Z" fill="#3A3B7B"/>
<path d="M97.5361 18.5078C98.3713 18.5078 99.0343 18.7624 99.5246 19.2716C100.022 19.7808 100.272 20.488 100.272 21.3933V25.3457H98.223V21.6722C98.223 21.2357 98.1063 20.9003 97.8734 20.6659C97.6481 20.4234 97.3353 20.3021 96.9331 20.3021C96.5316 20.3021 96.2141 20.4234 95.9812 20.6659C95.7565 20.9003 95.6438 21.2357 95.6438 21.6722V25.3457H93.5946V21.6722C93.5946 21.2357 93.4785 20.9003 93.2456 20.6659C93.0203 20.4234 92.7069 20.3021 92.3053 20.3021C91.9037 20.3021 91.5862 20.4234 91.3533 20.6659C91.1281 20.9003 91.016 21.2357 91.016 21.6722V25.3457H88.9551V18.5806H91.016V19.4292C91.2249 19.1463 91.4981 18.924 91.8355 18.7624C92.1728 18.5927 92.5545 18.5078 92.98 18.5078C93.4866 18.5078 93.9366 18.6169 94.33 18.8351C94.7316 19.0534 95.045 19.3646 95.2703 19.7687C95.5032 19.3969 95.8207 19.0938 96.2222 18.8594C96.6238 18.625 97.0621 18.5078 97.5361 18.5078Z" fill="#3A3B7B"/>
</g>
<defs>
<linearGradient id="paint0_linear_449_910" x1="28.9771" y1="17.1498" x2="11.1502" y2="17.1498" gradientUnits="userSpaceOnUse">
<stop stop-color="#64C2DB"/>
<stop offset="0.510417" stop-color="#7476ED"/>
<stop offset="1" stop-color="#E56F8C"/>
</linearGradient>
<clipPath id="clip0_449_910">
<rect width="90.4674" height="17.0273" fill="white" transform="translate(9.80469 12.0981)"/>
</clipPath>
</defs>
</svg>
