<svg width="45" height="50" viewBox="0 0 45 50" fill="none" xmlns="http://www.w3.org/2000/svg">
<path d="M44 25.4101C44 38.4955 34.2941 48.9521 22.5 48.9521C10.7059 48.9521 1 38.4955 1 25.4101C1 12.3247 10.7059 1.86816 22.5 1.86816C34.2941 1.86816 44 12.3247 44 25.4101Z" stroke="#57007B" stroke-width="2"/>
<path d="M29.0625 24.3875H17.9438L21.3469 19.929C21.506 19.7202 21.5826 19.451 21.5597 19.1806C21.5369 18.9102 21.4165 18.6608 21.225 18.4872C21.0335 18.3136 20.7867 18.2301 20.5388 18.2551C20.2909 18.28 20.0623 18.4113 19.9031 18.6201L15.2156 24.7556C15.1841 24.8044 15.1559 24.8557 15.1312 24.909C15.1312 24.9602 15.1313 24.9908 15.0656 25.042C15.0231 25.1592 15.0009 25.284 15 25.4101C15.0009 25.5362 15.0231 25.661 15.0656 25.7782C15.0656 25.8293 15.0656 25.86 15.1312 25.9112C15.1559 25.9645 15.1841 26.0157 15.2156 26.0645L19.9031 32.2C19.9913 32.3155 20.1017 32.4083 20.2264 32.4719C20.3512 32.5355 20.4873 32.5684 20.625 32.5682C20.844 32.5686 21.0563 32.4854 21.225 32.333C21.3199 32.2471 21.3984 32.1417 21.4559 32.0227C21.5134 31.9037 21.5489 31.7736 21.5602 31.6396C21.5715 31.5057 21.5585 31.3706 21.5219 31.2422C21.4853 31.1138 21.4258 30.9945 21.3469 30.8911L17.9438 26.4327H29.0625C29.3111 26.4327 29.5496 26.3249 29.7254 26.1332C29.9012 25.9414 30 25.6813 30 25.4101C30 25.1389 29.9012 24.8788 29.7254 24.687C29.5496 24.4952 29.3111 24.3875 29.0625 24.3875Z" fill="#57007B"/>
</svg>
