<svg width="133" height="138" viewBox="0 0 133 138" fill="none" xmlns="http://www.w3.org/2000/svg">
<g filter="url(#filter0_d_449_797)">
<ellipse cx="66.5" cy="55.4106" rx="22.5" ry="24.542" fill="#FAFAFA"/>
<path d="M88 55.4106C88 68.496 78.2941 78.9526 66.5 78.9526C54.7059 78.9526 45 68.496 45 55.4106C45 42.3252 54.7059 31.8687 66.5 31.8687C78.2941 31.8687 88 42.3252 88 55.4106Z" stroke="#57007B" stroke-width="2"/>
</g>
<path d="M59.9375 54.388H71.0562L67.6531 49.9295C67.494 49.7207 67.4174 49.4515 67.4403 49.1811C67.4631 48.9107 67.5835 48.6613 67.775 48.4877C67.9665 48.3141 68.2133 48.2306 68.4612 48.2555C68.7091 48.2805 68.9377 48.4118 69.0969 48.6206L73.7844 54.7561C73.8159 54.8049 73.8441 54.8562 73.8688 54.9095C73.8688 54.9606 73.8687 54.9913 73.9344 55.0424C73.9769 55.1597 73.9991 55.2845 74 55.4106C73.9991 55.5366 73.9769 55.6615 73.9344 55.7787C73.9344 55.8298 73.9344 55.8605 73.8688 55.9116C73.8441 55.965 73.8159 56.0162 73.7844 56.065L69.0969 62.2005C69.0087 62.316 68.8983 62.4088 68.7736 62.4724C68.6488 62.536 68.5127 62.5689 68.375 62.5686C68.156 62.5691 67.9437 62.4859 67.775 62.3335C67.6801 62.2476 67.6016 62.1422 67.5441 62.0232C67.4866 61.9042 67.4511 61.7741 67.4398 61.6401C67.4285 61.5062 67.4415 61.3711 67.4781 61.2427C67.5147 61.1142 67.5742 60.9949 67.6531 60.8916L71.0562 56.4332H59.9375C59.6889 56.4332 59.4504 56.3254 59.2746 56.1337C59.0988 55.9419 59 55.6818 59 55.4106C59 55.1394 59.0988 54.8793 59.2746 54.6875C59.4504 54.4957 59.6889 54.388 59.9375 54.388Z" fill="#57007B"/>
<defs>
<filter id="filter0_d_449_797" x="0" y="0.868652" width="133" height="137.084" filterUnits="userSpaceOnUse" color-interpolation-filters="sRGB">
<feFlood flood-opacity="0" result="BackgroundImageFix"/>
<feColorMatrix in="SourceAlpha" type="matrix" values="0 0 0 0 0 0 0 0 0 0 0 0 0 0 0 0 0 0 127 0" result="hardAlpha"/>
<feOffset dy="14"/>
<feGaussianBlur stdDeviation="22"/>
<feColorMatrix type="matrix" values="0 0 0 0 0.0561111 0 0 0 0 0.0777333 0 0 0 0 0.133333 0 0 0 0.08 0"/>
<feBlend mode="normal" in2="BackgroundImageFix" result="effect1_dropShadow_449_797"/>
<feBlend mode="normal" in="SourceGraphic" in2="effect1_dropShadow_449_797" result="shape"/>
</filter>
</defs>
</svg>
