<svg width="40" height="40" viewBox="0 0 40 40" fill="none" xmlns="http://www.w3.org/2000/svg">
<path d="M24.3662 20.0384C23.241 21.0134 21.8217 21.5836 20.3346 21.6582C18.8475 21.7328 17.3783 21.3074 16.1611 20.4499C14.9439 19.5924 14.0488 18.352 13.6185 16.9266C13.1882 15.5012 13.2474 13.9728 13.7868 12.585C14.3261 11.1972 15.3145 10.0299 16.5944 9.26912C17.8744 8.50837 19.3721 8.19799 20.849 8.38745C22.3258 8.57691 23.6967 9.25531 24.7431 10.3145C25.7896 11.3737 26.4513 12.7527 26.6229 14.2317C27.2162 17.2484 27.2096 20.8434 25.8496 24.0651C24.4129 27.4651 21.5146 30.3317 16.5662 31.6267C16.4069 31.6701 16.2405 31.6814 16.0768 31.6601C15.913 31.6387 15.7551 31.5852 15.6122 31.5025C15.4692 31.4198 15.3441 31.3095 15.244 31.1782C15.1439 31.0468 15.0708 30.897 15.029 30.7372C14.9871 30.5775 14.9774 30.411 15.0002 30.2474C15.0231 30.0839 15.0782 29.9265 15.1622 29.7843C15.2463 29.6422 15.3576 29.5181 15.4899 29.4192C15.6222 29.3204 15.7728 29.2487 15.9329 29.2084C20.1512 28.1034 22.4196 25.7584 23.5462 23.0917C23.9526 22.1144 24.2283 21.0878 24.3662 20.0384Z" fill="url(#paint0_linear_449_936)"/>
<defs>
<linearGradient id="paint0_linear_449_936" x1="26.9987" y1="8.33325" x2="6.64686" y2="20.25" gradientUnits="userSpaceOnUse">
<stop stop-color="#198F1F"/>
<stop offset="1" stop-color="#67E273"/>
</linearGradient>
</defs>
</svg>
