<svg width="40" height="40" viewBox="0 0 40 40" fill="none" xmlns="http://www.w3.org/2000/svg">
<path d="M15.6338 20.0384C16.7591 21.0134 18.1784 21.5836 19.6654 21.6582C21.1525 21.7328 22.6217 21.3074 23.8389 20.4499C25.0561 19.5924 25.9512 18.352 26.3815 16.9266C26.8118 15.5012 26.7526 13.9728 26.2132 12.585C25.6739 11.1972 24.6855 10.0299 23.4056 9.26912C22.1256 8.50837 20.6279 8.19799 19.151 8.38745C17.6742 8.57691 16.3033 9.25531 15.2569 10.3145C14.2104 11.3737 13.5487 12.7527 13.3771 14.2317C12.7838 17.2484 12.7904 20.8434 14.1504 24.0651C15.5871 27.4651 18.4854 30.3317 23.4338 31.6267C23.5931 31.6701 23.7595 31.6814 23.9232 31.6601C24.087 31.6387 24.2449 31.5852 24.3878 31.5025C24.5308 31.4198 24.6559 31.3095 24.756 31.1782C24.8561 31.0468 24.9292 30.897 24.971 30.7372C25.0129 30.5775 25.0226 30.411 24.9998 30.2474C24.9769 30.0839 24.9218 29.9265 24.8378 29.7843C24.7537 29.6422 24.6424 29.5181 24.5101 29.4192C24.3778 29.3204 24.2272 29.2487 24.0671 29.2084C19.8488 28.1034 17.5804 25.7584 16.4538 23.0917C16.0474 22.1144 15.7717 21.0878 15.6338 20.0384Z" fill="url(#paint0_linear_449_939)"/>
<defs>
<linearGradient id="paint0_linear_449_939" x1="13.0013" y1="8.33325" x2="33.3531" y2="20.25" gradientUnits="userSpaceOnUse">
<stop stop-color="#1A9020"/>
<stop offset="1" stop-color="#65DF70"/>
</linearGradient>
</defs>
</svg>
