<svg width="196" height="194" viewBox="0 0 196 194" fill="none" xmlns="http://www.w3.org/2000/svg">
<rect width="196" height="194" rx="30" fill="#F9F9FF"/>
<rect x="5.5" y="5.5" width="185" height="183" rx="24.5" stroke="#20912A" stroke-opacity="0.54" stroke-width="11"/>
<circle cx="98.5" cy="97.5" r="21.5" stroke="#656BF4" stroke-width="2"/>
<path d="M105.063 96.5625H93.9438L97.3469 92.475C97.506 92.2835 97.5826 92.0367 97.5597 91.7888C97.5369 91.5409 97.4165 91.3122 97.225 91.1531C97.0335 90.9939 96.7867 90.9174 96.5388 90.9402C96.2909 90.9631 96.0623 91.0835 95.9031 91.275L91.2156 96.9C91.1841 96.9447 91.1559 96.9917 91.1312 97.0406C91.1312 97.0875 91.1313 97.1156 91.0656 97.1625C91.0231 97.2699 91.0009 97.3844 91 97.5C91.0009 97.6155 91.0231 97.73 91.0656 97.8375C91.0656 97.8843 91.0656 97.9125 91.1312 97.9593C91.1559 98.0082 91.1841 98.0552 91.2156 98.1L95.9031 103.725C95.9913 103.831 96.1017 103.916 96.2264 103.974C96.3512 104.033 96.4873 104.063 96.625 104.062C96.844 104.063 97.0563 103.987 97.225 103.847C97.3199 103.768 97.3984 103.671 97.4559 103.562C97.5134 103.453 97.5489 103.334 97.5602 103.211C97.5715 103.088 97.5585 102.965 97.5219 102.847C97.4853 102.729 97.4258 102.62 97.3469 102.525L93.9438 98.4375H105.063C105.311 98.4375 105.55 98.3387 105.725 98.1629C105.901 97.9871 106 97.7486 106 97.5C106 97.2513 105.901 97.0129 105.725 96.837C105.55 96.6612 105.311 96.5625 105.063 96.5625Z" fill="#676CF4"/>
</svg>
