<svg width="394" height="387" viewBox="0 0 394 387" fill="none" xmlns="http://www.w3.org/2000/svg">
<path d="M337.692 193.5C337.692 268.888 275.355 331.5 196.596 331.5C117.837 331.5 55.5 268.888 55.5 193.5C55.5 118.112 117.837 55.4998 196.596 55.4998C275.355 55.4998 337.692 118.112 337.692 193.5Z" stroke="white" stroke-opacity="0.06" stroke-width="111"/>
<path d="M365.308 193.5C365.308 282.476 292.064 354.988 201.24 354.988C110.415 354.988 37.1719 282.476 37.1719 193.5C37.1719 104.523 110.415 32.0118 201.24 32.0118C292.064 32.0118 365.308 104.523 365.308 193.5Z" stroke="white" stroke-opacity="0.06" stroke-width="31"/>
<path d="M344.668 194.016C344.668 271.233 280.742 334.348 201.24 334.348C121.738 334.348 57.8115 271.233 57.8115 194.016C57.8115 116.799 121.738 53.6838 201.24 53.6838C280.742 53.6838 344.668 116.799 344.668 194.016Z" stroke="white" stroke-opacity="0.06" stroke-width="31"/>
</svg>
